<svg width="24" height="24" viewBox="0 0 24 24" fill="none" xmlns="http://www.w3.org/2000/svg">
<g clip-path="url(#clip0_49_167)">
<path d="M18.9914 10.6588C15.1816 8.39629 8.89743 8.18826 5.26051 9.29208C4.67645 9.46934 4.05882 9.13951 3.8819 8.55563C3.70488 7.97119 4.03423 7.35401 4.61873 7.17646C8.79367 5.90921 15.7339 6.15394 20.1198 8.75746C20.6451 9.06936 20.8174 9.7478 20.5061 10.2722C20.1945 10.7975 19.5155 10.9707 18.9914 10.6588ZM18.8667 14.0099C18.5994 14.4437 18.0323 14.5797 17.5991 14.3134C14.4229 12.361 9.57962 11.7954 5.8219 12.936C5.33461 13.0833 4.8199 12.8085 4.67188 12.3222C4.52506 11.8349 4.79994 11.3211 5.28637 11.1729C9.57901 9.87031 14.9155 10.5012 18.5635 12.7431C18.9967 13.0099 19.133 13.5772 18.8667 14.0099ZM17.4205 17.2282C17.2081 17.5766 16.7546 17.6857 16.4075 17.4734C13.6321 15.7771 10.1387 15.394 6.02462 16.3337C5.62817 16.4246 5.23305 16.1762 5.14263 15.7798C5.05183 15.3835 5.29932 14.9883 5.69665 14.8978C10.1988 13.8686 14.0608 14.3116 17.176 16.2152C17.5233 16.4273 17.6327 16.881 17.4205 17.2282ZM12.0001 0.180965C5.47265 0.180965 0.180969 5.47254 0.180969 11.9999C0.180969 18.528 5.47265 23.8191 12.0001 23.8191C18.5277 23.8191 23.8191 18.528 23.8191 11.9999C23.8191 5.47254 18.5277 0.180965 12.0001 0.180965Z" fill="#1B1716"/>
</g>
<defs>
<clipPath id="clip0_49_167">
<rect width="24" height="24" fill="white"/>
</clipPath>
</defs>
</svg>
